<svg width="24" height="24" viewBox="0 0 24 24" fill="none" xmlns="http://www.w3.org/2000/svg">
<path opacity="0.2" d="M12 20.25C12 20.25 2.625 15 2.625 8.62501C2.625 7.49803 3.01546 6.40585 3.72996 5.53431C4.44445 4.66277 5.43884 4.0657 6.54393 3.84468C7.64903 3.62366 8.79657 3.79235 9.79131 4.32204C10.7861 4.85174 11.5665 5.70972 12 6.75001C12.4335 5.70972 13.2139 4.85174 14.2087 4.32204C15.2034 3.79235 16.351 3.62366 17.4561 3.84468C18.5612 4.0657 19.5555 4.66277 20.27 5.53431C20.9845 6.40585 21.375 7.49803 21.375 8.62501C21.375 15 12 20.25 12 20.25Z" fill="#2F3A4B"/>
<path d="M12 20.25L11.7557 20.6863C11.9075 20.7713 12.0925 20.7713 12.2443 20.6863L12 20.25ZM12 20.25C12.2443 20.6863 12.2444 20.6862 12.2446 20.6861L12.2452 20.6858L12.2469 20.6848L12.2529 20.6814L12.2748 20.669C12.2938 20.6581 12.3214 20.6423 12.357 20.6215C12.4283 20.58 12.5317 20.5188 12.6628 20.4391C12.9248 20.2796 13.2975 20.0455 13.7441 19.7448C14.6363 19.1441 15.828 18.2744 17.022 17.1998C19.3797 15.0778 21.875 12.0426 21.875 8.62501C21.875 7.38244 21.4445 6.17825 20.6567 5.21732C19.8689 4.25639 18.7726 3.59807 17.5541 3.35439C16.3357 3.1107 15.0704 3.29669 13.9737 3.88071C13.1696 4.30889 12.4925 4.93163 12 5.6855C11.5075 4.93163 10.8304 4.30889 10.0263 3.88071C8.92955 3.29669 7.66432 3.1107 6.44588 3.35439C5.22744 3.59807 4.13106 4.25639 3.34329 5.21732C2.55551 6.17825 2.125 7.38244 2.125 8.62501C2.125 12.0426 4.62027 15.0778 6.97802 17.1998C8.17201 18.2744 9.36373 19.1441 10.2559 19.7448C10.7025 20.0455 11.0752 20.2796 11.3372 20.4391C11.4683 20.5188 11.5717 20.58 11.643 20.6215C11.6786 20.6423 11.7062 20.6581 11.7252 20.669L11.7471 20.6814L11.7531 20.6848L11.7548 20.6858L11.7554 20.6861C11.7556 20.6862 11.7557 20.6863 12 20.25Z" stroke="#2F3A4B" stroke-linecap="round" stroke-linejoin="round"/>
</svg>
