<svg width="33" height="32" viewBox="0 0 33 32" fill="none" xmlns="http://www.w3.org/2000/svg">
<g clip-path="url(#clip0_636_958)">
<path d="M21.8745 8.14489C22.4824 8.52739 23.2836 8.51345 23.7739 7.98839L26.0944 5.51276C26.5848 4.98776 26.4894 4.24401 25.8823 3.85995L25.8514 3.83183C23.2624 1.83883 20.0199 0.653076 16.4999 0.653076C10.6221 0.653076 5.51863 3.95883 2.94069 8.81114L7.62419 12.5621C9.00444 9.00258 12.453 6.47439 16.4999 6.47439C18.4771 6.47439 20.3089 7.08201 21.8294 8.11526L21.8745 8.14489Z" fill="#D50707"/>
<path d="M6.97443 16C6.97443 14.786 7.21018 13.6295 7.62431 12.5619L2.94075 8.81104C1.80131 10.9559 1.15312 13.4018 1.15312 16C1.15312 18.6103 1.80668 21.0673 2.956 23.2192L7.61175 19.4038C7.20612 18.3452 6.97443 17.201 6.97443 16Z" fill="#FFD41D"/>
<path d="M21.7959 23.9114C20.2809 24.9277 18.4618 25.526 16.5002 25.526C12.4401 25.526 8.98275 22.9814 7.61162 19.4037L2.95581 23.2189C5.53906 28.0551 10.6342 31.3469 16.4997 31.3469C20.3091 31.3469 23.7914 29.9561 26.4744 27.6584L21.7959 23.9114Z" fill="#1EB615"/>
<path d="M31.7912 14.6928C31.6966 13.9807 31.0314 13.3981 30.313 13.3981H18.4235C17.7051 13.3981 17.1174 13.9858 17.1174 14.7042V17.5162C17.1174 18.2346 17.7051 18.8223 18.4235 18.8223H24.2942C24.9706 18.8223 25.4292 19.2849 25.2047 19.8713C24.4697 21.5183 23.2792 22.9161 21.7958 23.9114L26.4746 27.6584C29.7614 24.8435 31.8468 20.6666 31.8468 16C31.8469 15.1121 31.7912 14.6928 31.7912 14.6928Z" fill="#0084FF"/>
<path d="M20.7774 15.1661H20.485C20.1243 15.1661 19.8319 15.4585 19.8319 15.8192C19.8319 16.1799 20.1243 16.4723 20.485 16.4723H20.7774C21.1381 16.4723 21.4304 16.1799 21.4304 15.8192C21.4304 15.4586 21.1381 15.1661 20.7774 15.1661Z" fill="white"/>
<path d="M28.5802 15.1661H22.8901C22.5294 15.1661 22.237 15.4585 22.237 15.8192C22.237 16.1799 22.5294 16.4723 22.8901 16.4723H28.5802C28.9409 16.4723 29.2333 16.1799 29.2333 15.8192C29.2333 15.4586 28.9409 15.1661 28.5802 15.1661Z" fill="white"/>
<path d="M32.4386 14.6068C32.2999 13.5628 31.3662 12.745 30.3131 12.745H18.4235C17.3432 12.745 16.4643 13.6239 16.4643 14.7042V17.5162C16.4643 18.5965 17.3432 19.4754 18.4235 19.4754H24.2942C24.4975 19.4754 24.5976 19.5481 24.6089 19.5724C24.6098 19.5766 24.6096 19.5944 24.5992 19.6254C23.9181 21.1413 22.8232 22.4355 21.432 23.3691C21.4319 23.3691 21.4319 23.3691 21.4318 23.3692C19.9653 24.3529 18.26 24.8729 16.5002 24.8729C12.856 24.8729 9.52919 22.5814 8.22181 19.1707C8.22175 19.1706 8.22175 19.1705 8.22169 19.1703C7.82744 18.1413 7.62756 17.0746 7.62756 16C7.62756 14.9116 7.83131 13.8343 8.23319 12.7982C8.23337 12.7977 8.2335 12.7971 8.23369 12.7966C9.56981 9.35262 12.8143 7.12738 16.4999 7.12738C18.2755 7.12738 19.9914 7.65569 21.4624 8.65531C21.4649 8.657 21.4674 8.65875 21.47 8.6605L21.5151 8.69019C21.5189 8.69269 21.5227 8.69519 21.5267 8.69763C21.9066 8.93669 22.3373 9.06306 22.7722 9.06306C22.7723 9.06306 22.7722 9.06306 22.7722 9.06306C23.3471 9.06306 23.8723 8.83969 24.2503 8.43506L26.5716 5.95856C26.9386 5.56575 27.1121 5.05244 27.0476 4.55037C26.9856 4.06794 26.7085 3.631 26.2839 3.34262C26.2729 3.33281 26.2615 3.32344 26.2497 3.31444C23.4332 1.14612 20.0617 0 16.4999 0C10.5676 0 5.15106 3.25875 2.36394 8.50469C2.36356 8.50537 2.36331 8.50612 2.36287 8.50681C1.14425 10.8016 0.500061 13.3927 0.500061 16.0001C0.500061 18.6213 1.15 21.2236 2.3795 23.5261C2.37956 23.5262 2.37962 23.5264 2.37975 23.5266C5.17162 28.7532 10.5821 32 16.4998 32C20.3093 32 24.0017 30.635 26.8971 28.1562C26.8979 28.1556 26.8986 28.1551 26.8994 28.1544C30.4587 25.1063 32.4999 20.6761 32.4999 16C32.4999 15.0794 32.4411 14.6257 32.4386 14.6068ZM16.4999 1.30613C19.7619 1.30613 22.8496 2.3525 25.4316 4.33287C25.4316 4.33287 25.5027 4.38862 25.5332 4.41187C25.6674 4.51425 25.7372 4.6 25.7522 4.71675C25.7672 4.83344 25.7192 4.95787 25.6181 5.06625L23.2967 7.54275C23.1313 7.71987 22.9203 7.757 22.7724 7.757C22.5886 7.757 22.3954 7.69969 22.2276 7.5955L22.1927 7.57244C20.5053 6.42681 18.5369 5.82131 16.5001 5.82131C14.4073 5.82131 12.3975 6.453 10.688 7.64819C9.26162 8.64544 8.12644 9.9725 7.36819 11.5203L3.77906 8.64581C6.4065 4.1045 11.2317 1.30613 16.4999 1.30613ZM3.166 9.82819L6.85137 12.7797C6.4995 13.8269 6.32144 14.9079 6.32144 16C6.32144 17.0794 6.49637 18.1503 6.842 19.19L3.17562 22.1944C2.27844 20.2642 1.80625 18.1394 1.80625 16.0001C1.80619 13.8703 2.27512 11.7529 3.166 9.82819ZM16.4998 30.6939C11.2436 30.6939 6.42281 27.9041 3.792 23.3779L7.35712 20.4564C8.11225 22.0083 9.24562 23.3395 10.6722 24.3409C12.3852 25.5434 14.4004 26.1791 16.5002 26.1791C18.3593 26.1791 20.1651 25.6738 21.7525 24.7133L25.4338 27.6617C22.8767 29.6222 19.7341 30.6939 16.4998 30.6939ZM26.4519 26.8036L22.8669 23.9324C24.1332 22.9168 25.1396 21.6198 25.8011 20.1374C25.8059 20.1267 25.8104 20.1157 25.8146 20.1047C25.9841 19.6621 25.9365 19.1978 25.684 18.8308C25.399 18.4165 24.8794 18.1692 24.2941 18.1692H18.4234C18.0633 18.1692 17.7704 17.8762 17.7704 17.5161V14.7041C17.7704 14.344 18.0633 14.0511 18.4234 14.0511H30.3129C30.704 14.0511 31.0922 14.3912 31.1436 14.7772C31.144 14.7811 31.1937 15.1793 31.1937 15.9999C31.1938 20.1145 29.4716 24.021 26.4519 26.8036Z" fill="black"/>
</g>
<defs>
<clipPath id="clip0_636_958">
<rect width="32" height="32" fill="white" transform="translate(0.5)"/>
</clipPath>
</defs>
</svg>
