<svg width="181" height="33" viewBox="0 0 181 33" fill="none" xmlns="http://www.w3.org/2000/svg">
<path d="M17.8329 15.384C16.0849 15.688 14.4509 15.916 12.6649 15.764C11.6009 15.65 10.4609 15.726 10.2329 17.018C10.0429 18.006 10.5369 18.956 11.3349 19.184C12.3229 19.45 13.3109 19.678 14.2989 19.83C11.5249 23.136 7.76287 21.996 6.92687 17.854C6.31887 14.738 7.11687 10.824 8.86487 8.544C11.0309 5.694 14.1089 6.834 16.6169 8.278C17.4149 8.696 18.2509 8.316 18.6309 7.214C18.9729 6.074 18.6689 4.744 17.9089 4.212C12.3229 0.183998 6.54687 0.715998 3.24087 5.504C2.48087 6.682 0.618866 9.836 0.580866 14.396C0.504866 19.184 2.48087 23.934 5.44487 26.176C6.69887 27.126 8.02887 27.544 9.35887 27.544C11.7909 27.544 14.2229 26.1 16.1229 23.364C16.4269 24.96 16.8069 26.556 17.2249 28.076C17.4529 28.836 18.0229 29.33 18.6309 29.33C18.7829 29.33 18.9729 29.292 19.1249 29.216C19.8849 28.912 20.3029 27.886 20.0369 26.936C19.4289 24.732 18.9729 22.452 18.6309 20.172C18.7449 20.134 20.7209 19.944 21.0249 18.462C21.2149 17.588 21.2529 16.486 20.6069 15.802C19.9229 15.042 17.8329 15.384 17.8329 15.384ZM36.4861 5.086C34.3581 6.682 31.1281 11.166 30.5201 11.85C28.7341 9.646 26.8721 7.442 24.9341 5.314C24.5541 4.934 24.0601 4.668 23.5281 4.63C22.9961 4.592 22.5021 4.782 22.1601 5.124C21.3621 5.884 21.4001 7.138 22.1601 7.974C24.3641 10.368 26.5681 12.99 28.5441 15.536C28.5061 15.65 27.9361 19.754 27.9741 21.654C27.9741 24.352 27.7461 28.532 31.4701 28.532C31.5081 28.532 31.5461 28.532 31.5841 28.532C32.6101 28.494 33.6741 28 34.0921 27.012C34.5861 25.796 34.3201 24.01 34.3201 22.718C34.2821 20.02 34.7001 16.676 36.1441 14.32C37.5881 11.964 38.9561 10.862 41.1601 9.19C42.5661 8.088 42.3381 6.758 41.6921 5.884C40.5901 4.478 38.1581 3.832 36.4861 5.086ZM51.1268 4.896C49.7208 4.516 48.2768 4.82 47.0988 5.732C45.3128 7.176 44.4388 9.532 43.9068 11.166C43.4888 12.42 43.1468 13.712 42.8808 15.08C42.6528 15.194 42.4248 15.346 42.1968 15.536C41.6648 16.106 41.3608 16.904 41.4368 17.778C41.4368 18.31 41.6268 18.994 42.1588 19.716C42.0068 21.502 41.8928 23.402 41.8548 25.454C41.8168 27.126 42.5008 27.886 43.0328 28.228C43.4508 28.456 43.8688 28.532 44.2868 28.532C45.9968 28.532 47.4028 27.392 47.5548 25.606C47.6308 24.428 47.5928 23.25 47.5548 22.11C47.7828 22.11 48.0108 22.11 48.2008 22.11C50.0248 22.11 51.7728 21.616 53.3688 20.59C53.4448 21.844 53.4448 25.416 53.4448 26.024C53.4448 27.278 54.3188 28.266 55.3828 28.266C56.4848 28.266 57.3588 27.278 57.3588 26.024C57.3588 25.454 57.2448 17.778 56.7888 14.738C55.9528 9.19 53.9388 5.694 51.1268 4.896ZM47.7448 17.132C48.0108 15.232 48.2008 12.496 49.9108 11.204C52.5708 9.19 52.9128 15.27 53.0648 16.6C51.3168 17.816 49.4548 17.74 47.7448 17.132ZM69.1798 4.896C67.7738 4.516 66.3298 4.82 65.1518 5.732C63.3658 7.176 62.4918 9.532 61.9598 11.166C61.5418 12.42 61.1998 13.712 60.9338 15.08C60.7058 15.194 60.4778 15.346 60.2498 15.536C59.7178 16.106 59.4138 16.904 59.4898 17.778C59.4898 18.31 59.6798 18.994 60.2118 19.716C60.0598 21.502 59.9458 23.402 59.9078 25.454C59.8698 27.126 60.5538 27.886 61.0858 28.228C61.5038 28.456 61.9218 28.532 62.3398 28.532C64.0498 28.532 65.4558 27.392 65.6078 25.606C65.6838 24.428 65.6458 23.25 65.6078 22.11C65.8358 22.11 66.0638 22.11 66.2538 22.11C68.0778 22.11 69.8258 21.616 71.4218 20.59C71.4978 21.844 71.4978 25.416 71.4978 26.024C71.4978 27.278 72.3718 28.266 73.4358 28.266C74.5378 28.266 75.4118 27.278 75.4118 26.024C75.4118 25.454 75.2978 17.778 74.8418 14.738C74.0058 9.19 71.9918 5.694 69.1798 4.896ZM65.7978 17.132C66.0638 15.232 66.2538 12.496 67.9638 11.204C70.6238 9.19 70.9658 15.27 71.1178 16.6C69.3698 17.816 67.5078 17.74 65.7978 17.132ZM93.0847 5.086C92.6287 4.668 92.0587 4.516 91.4127 4.706C90.0067 5.086 89.3987 6.834 89.0947 8.696C85.6747 5.428 81.8367 4.706 79.8607 4.592C79.3667 4.554 78.8347 4.706 78.4547 5.086C78.0747 5.428 77.8087 5.922 77.8087 6.454C77.7707 7.024 77.9227 7.518 78.2647 7.936C78.4927 8.202 78.7587 8.354 79.0247 8.468C78.1887 13.788 78.4547 23.402 78.6447 24.884C78.9487 27.582 80.0127 28.152 80.8107 28.152C81.9127 28.152 82.7487 26.974 83.2427 25.948C84.7247 22.756 84.7247 13.294 84.4967 10.178C85.1807 10.596 85.9027 11.128 86.5867 11.812C88.8667 14.054 88.5627 17.588 88.6007 20.59C88.6007 23.098 88.4867 25.644 88.7527 28.152C89.0947 31.382 90.1207 32.066 90.9187 32.066H90.9567C92.0587 32.066 92.7807 30.622 93.3507 29.406C94.6807 26.556 94.8327 13.94 94.6047 10.14C94.4527 7.556 93.9587 5.846 93.0847 5.086ZM114.102 14.586C115.242 13.978 116.23 11.166 115.622 8.924C114.558 5.124 109.01 4.592 106.616 4.706C102.702 4.858 99.0543 7.29 97.2683 9.608C96.5843 10.596 96.6603 12.002 97.4583 12.838C97.8383 13.256 98.3703 13.484 98.9403 13.446C99.5103 13.408 100.004 13.142 100.384 12.648C100.65 12.23 100.992 11.888 101.372 11.546C101.372 11.622 101.258 20.362 101.258 21.16C101.106 21.198 100.992 21.236 100.878 21.312C99.8523 21.882 99.2823 23.44 99.2823 24.618C99.2823 25.682 99.7003 26.556 100.422 26.974C102.17 27.962 104.64 28.532 107.262 28.532C110.036 28.532 112.392 27.734 114.102 26.176C116.914 23.592 118.966 19.602 116.23 16.22C115.736 15.65 114.824 15.004 114.102 14.586ZM106.464 19.944C106.464 19.222 106.464 18.424 106.502 18.044C106.502 17.626 109.694 17.778 109.998 17.816C111.1 18.006 112.81 18.462 113.076 19.754C113.342 21.084 112.164 22.11 111.062 22.528C110.454 22.794 109.808 22.832 109.162 22.87C108.896 22.908 106.388 22.87 106.388 22.68C106.426 21.844 106.426 20.856 106.464 19.944ZM106.768 9.304C107.756 9.228 108.782 9.19 109.694 9.456C110.378 9.646 111.632 10.292 111.404 11.47C111.214 12.572 108.896 13.256 106.692 13.484C106.73 12.458 106.768 10.71 106.768 9.304ZM131.904 4.858C129.586 4.25 127.648 5.01 127.002 5.276C121.986 7.214 118.566 13.598 119.44 19.488C119.82 22.148 120.846 24.77 122.898 26.556C125.9 29.178 130.422 28.798 133.614 26.746C136.92 24.656 138.744 20.704 138.782 15.688C138.82 14.51 138.858 11.774 137.148 9.038C135.742 6.796 133.994 5.39 131.904 4.858ZM130.954 22.642C128.636 23.44 126.356 22.262 125.216 19.716C124.57 18.31 124.342 16.638 124.57 15.27C124.988 12.838 126.584 11.508 128.636 11.394C130.916 11.28 133.728 14.32 134.07 17.436C134.374 20.286 132.778 22.072 130.954 22.642ZM153.297 4.858C150.979 4.25 149.041 5.01 148.395 5.276C143.379 7.214 139.959 13.598 140.833 19.488C141.213 22.148 142.239 24.77 144.291 26.556C147.293 29.178 151.815 28.798 155.007 26.746C158.313 24.656 160.137 20.704 160.175 15.688C160.213 14.51 160.251 11.774 158.541 9.038C157.135 6.796 155.387 5.39 153.297 4.858ZM152.347 22.642C150.029 23.44 147.749 22.262 146.609 19.716C145.963 18.31 145.735 16.638 145.963 15.27C146.381 12.838 147.977 11.508 150.029 11.394C152.309 11.28 155.121 14.32 155.463 17.436C155.767 20.286 154.171 22.072 152.347 22.642ZM172.106 19.298C170.966 18.196 170.51 16.752 170.472 16.638C173.17 14.092 175.678 11.394 177.958 8.582C178.338 8.164 178.49 7.594 178.452 7.024C178.414 6.492 178.186 6.036 177.806 5.732C176.97 5.048 175.754 5.2 175.032 6.074C173.094 8.468 170.966 10.748 168.724 12.914C168.724 11.774 168.724 10.634 168.648 9.494C168.496 7.214 167.964 5.77 167.128 5.086C166.634 4.706 166.026 4.554 165.418 4.782C161.846 5.998 162.644 20.97 162.72 22.186C162.758 23.136 162.758 25.188 163.594 27.202C163.898 27.886 164.506 28.722 165.342 28.494C166.368 28.266 166.976 27.164 167.356 26.214C167.85 24.998 168.04 23.668 168.154 22.338C168.42 22.756 170.244 25.872 174.88 26.632C176.932 26.974 179.516 26.29 180.504 24.162C180.998 23.098 180.732 21.844 179.744 21.236C179.136 20.894 178.49 20.856 177.806 20.856C175.678 20.78 173.322 20.514 172.106 19.298Z" fill="url(#paint0_linear_636_917)"/>
<defs>
<linearGradient id="paint0_linear_636_917" x1="90.5" y1="-1" x2="90.5" y2="36" gradientUnits="userSpaceOnUse">
<stop stop-color="#1A4D00"/>
<stop offset="1" stop-color="#46CC00"/>
</linearGradient>
</defs>
</svg>
