<svg width="24" height="24" viewBox="0 0 24 24" fill="none" xmlns="http://www.w3.org/2000/svg">
<path opacity="0.2" d="M5.26855 10.5C5.26855 9.61609 5.44266 8.74078 5.78094 7.92411C6.11921 7.10744 6.61503 6.36539 7.24009 5.74034C7.86514 5.11528 8.60719 4.61946 9.42386 4.28118C10.2405 3.94291 11.1158 3.7688 11.9998 3.7688C12.8838 3.7688 13.7591 3.94291 14.5757 4.28118C15.3924 4.61946 16.1345 5.11528 16.7595 5.74034C17.3846 6.36539 17.8804 7.10744 18.2187 7.92411C18.5569 8.74078 18.731 9.61609 18.731 10.5C18.731 13.8563 19.4342 15.8063 20.0529 16.875C20.1186 16.9889 20.1533 17.118 20.1534 17.2494C20.1535 17.3808 20.1191 17.51 20.0536 17.6239C19.9881 17.7378 19.8938 17.8326 19.7801 17.8986C19.6665 17.9646 19.5375 17.9996 19.406 18H4.59355C4.46212 17.9996 4.33312 17.9646 4.21948 17.8986C4.10583 17.8326 4.01153 17.7378 3.94601 17.6239C3.8805 17.51 3.84608 17.3808 3.84619 17.2494C3.84631 17.118 3.88096 16.9889 3.94667 16.875C4.56542 15.8063 5.26855 13.8563 5.26855 10.5Z" fill="#2F3A4B"/>
<path d="M5.26855 10.5C5.26855 9.61609 5.44266 8.74078 5.78094 7.92411C6.11921 7.10744 6.61503 6.36539 7.24009 5.74034C7.86514 5.11528 8.60719 4.61946 9.42386 4.28118C10.2405 3.94291 11.1158 3.7688 11.9998 3.7688C12.8838 3.7688 13.7591 3.94291 14.5757 4.28118C15.3924 4.61946 16.1345 5.11528 16.7595 5.74034C17.3846 6.36539 17.8804 7.10744 18.2187 7.92411C18.5569 8.74078 18.731 9.61609 18.731 10.5V10.5C18.731 13.8563 19.4342 15.8063 20.0529 16.875C20.1186 16.9889 20.1533 17.118 20.1534 17.2494C20.1535 17.3808 20.1191 17.51 20.0536 17.6239C19.9881 17.7378 19.8938 17.8326 19.7801 17.8986C19.6665 17.9646 19.5375 17.9996 19.406 18H4.59355C4.46212 17.9996 4.33312 17.9646 4.21948 17.8986C4.10583 17.8326 4.01153 17.7378 3.94601 17.6239C3.8805 17.51 3.84608 17.3808 3.84619 17.2494C3.84631 17.118 3.88096 16.9889 3.94667 16.875C4.56542 15.8063 5.26855 13.8563 5.26855 10.5Z" stroke="#2F3A4B" stroke-linecap="round" stroke-linejoin="round"/>
<path d="M9 18V18.75C9 19.5456 9.31607 20.3087 9.87868 20.8713C10.4413 21.4339 11.2044 21.75 12 21.75C12.7956 21.75 13.5587 21.4339 14.1213 20.8713C14.6839 20.3087 15 19.5456 15 18.75V18" stroke="#2F3A4B" stroke-linecap="round" stroke-linejoin="round"/>
<path d="M17.1938 2.25C18.7209 3.21395 19.9534 4.57938 20.7563 6.19687" stroke="#2F3A4B" stroke-linecap="round" stroke-linejoin="round"/>
<path d="M3.24365 6.19687C4.04664 4.57938 5.2791 3.21395 6.80615 2.25" stroke="#2F3A4B" stroke-linecap="round" stroke-linejoin="round"/>
</svg>
